<svg width="50" height="50" viewBox="0 0 50 50" fill="none" xmlns="http://www.w3.org/2000/svg">
<circle cx="25" cy="25" r="25" fill="#C9D32C"/>
<g clip-path="url(#clip0_60_186)">
<path d="M19.0249 15.8262C18.9437 15.7217 18.8413 15.6358 18.7243 15.574C18.6074 15.5122 18.4786 15.4761 18.3466 15.4679C18.2146 15.4597 18.0824 15.4797 17.9587 15.5265C17.835 15.5733 17.7227 15.646 17.6293 15.7395L16.2075 17.1627C15.5434 17.8282 15.2986 18.77 15.5888 19.5964C16.7943 23.0162 18.7529 26.1213 21.3198 28.6824C23.8808 31.2493 26.986 33.2079 30.4058 34.4134C31.2321 34.7035 32.174 34.4588 32.8395 33.7947L34.2613 32.3729C34.3548 32.2795 34.4275 32.1672 34.4743 32.0435C34.5211 31.9198 34.5411 31.7875 34.5329 31.6555C34.5247 31.5235 34.4886 31.3948 34.4268 31.2779C34.365 31.1609 34.2791 31.0585 34.1746 30.9773L31.0025 28.5105C30.8909 28.4242 30.7611 28.3643 30.623 28.3352C30.4849 28.3061 30.342 28.3087 30.205 28.3428L27.1938 29.0949C26.7918 29.1947 26.3709 29.189 25.9717 29.0785C25.5726 28.9679 25.2087 28.7562 24.9154 28.4638L21.5384 25.0854C21.2458 24.7922 21.0338 24.4284 20.923 24.0293C20.8122 23.6301 20.8063 23.2091 20.9059 22.807L21.6594 19.7958C21.6934 19.6588 21.696 19.5159 21.667 19.3778C21.6379 19.2397 21.578 19.1099 21.4916 18.9983L19.0249 15.8262ZM16.5911 14.7028C16.8318 14.4621 17.1208 14.2753 17.4392 14.1549C17.7575 14.0345 18.0978 13.9832 18.4375 14.0044C18.7772 14.0256 19.1084 14.1188 19.4093 14.2779C19.7102 14.4369 19.9738 14.6582 20.1826 14.9269L22.6494 18.0977C23.1018 18.6793 23.2613 19.4369 23.0825 20.1519L22.3304 23.1632C22.2918 23.3191 22.294 23.4824 22.3369 23.6373C22.3798 23.7922 22.4618 23.9334 22.5751 24.0473L25.9535 27.4257C26.0676 27.5392 26.209 27.6214 26.3641 27.6643C26.5193 27.7072 26.6828 27.7093 26.839 27.6704L29.8489 26.9183C30.2018 26.8306 30.57 26.824 30.9257 26.899C31.2815 26.974 31.6157 27.1287 31.9031 27.3514L35.0739 29.8182C36.2138 30.705 36.3183 32.3894 35.298 33.4083L33.8763 34.83C32.8588 35.8475 31.338 36.2944 29.9204 35.7953C26.2913 34.5201 22.9966 32.4427 20.2816 29.7178C17.5569 27.0032 15.4795 23.709 14.2041 20.0804C13.7064 18.6642 14.1533 17.142 15.1708 16.1245L16.5911 14.7028Z" fill="white"/>
</g>
<defs>
<clipPath id="clip0_60_186">
<rect width="22" height="22" fill="white" transform="translate(14 14)"/>
</clipPath>
</defs>
</svg>
