<svg width="50" height="50" viewBox="0 0 50 50" fill="none" xmlns="http://www.w3.org/2000/svg">
<circle cx="25" cy="25" r="25" fill="#C9D32C"/>
<path d="M31.1279 30.0449C30.0854 31.0874 27.874 33.2988 26.4126 34.7603C25.6315 35.5414 24.3676 35.5412 23.5866 34.7601C22.1503 33.3238 19.9831 31.1566 18.8714 30.0449C15.4869 26.6604 15.4869 21.173 18.8714 17.7884C22.256 14.4039 27.7434 14.4039 31.1279 17.7884C34.5125 21.173 34.5125 26.6604 31.1279 30.0449Z" stroke="white" stroke-width="2" stroke-linecap="round" stroke-linejoin="round"/>
<path d="M28.2497 23.9167C28.2497 25.7116 26.7946 27.1667 24.9997 27.1667C23.2047 27.1667 21.7497 25.7116 21.7497 23.9167C21.7497 22.1217 23.2047 20.6667 24.9997 20.6667C26.7946 20.6667 28.2497 22.1217 28.2497 23.9167Z" stroke="white" stroke-width="2" stroke-linecap="round" stroke-linejoin="round"/>
</svg>
