<svg width="1216" height="177" viewBox="0 0 1216 177" fill="none" xmlns="http://www.w3.org/2000/svg">
<rect width="1216" height="177" fill="#F7F8DF"/>
<path d="M470.52 24L467.176 12.08H468.824L471.624 22.576H471.24L474.152 12.08H475.8L478.696 22.576H478.296L481.112 12.08H482.76L479.416 24H477.672L474.76 13.552H475.176L472.264 24H470.52ZM487.464 24.192C486.632 24.192 485.89 23.9947 485.24 23.6C484.589 23.2053 484.077 22.6667 483.704 21.984C483.33 21.2907 483.144 20.5173 483.144 19.664C483.144 18.8 483.325 18.032 483.688 17.36C484.061 16.688 484.562 16.16 485.192 15.776C485.832 15.3813 486.546 15.184 487.336 15.184C487.976 15.184 488.541 15.3013 489.032 15.536C489.533 15.76 489.954 16.0693 490.296 16.464C490.648 16.848 490.914 17.2907 491.096 17.792C491.288 18.2827 491.384 18.7947 491.384 19.328C491.384 19.4453 491.373 19.5787 491.352 19.728C491.341 19.8667 491.325 20 491.304 20.128H484.232V18.848H490.44L489.736 19.424C489.832 18.8693 489.778 18.3733 489.576 17.936C489.373 17.4987 489.074 17.152 488.68 16.896C488.285 16.64 487.837 16.512 487.336 16.512C486.834 16.512 486.376 16.64 485.96 16.896C485.544 17.152 485.218 17.52 484.984 18C484.76 18.4693 484.669 19.0293 484.712 19.68C484.669 20.3093 484.765 20.864 485 21.344C485.245 21.8133 485.586 22.1813 486.024 22.448C486.472 22.704 486.957 22.832 487.48 22.832C488.056 22.832 488.541 22.6987 488.936 22.432C489.33 22.1653 489.65 21.824 489.896 21.408L491.144 22.048C490.973 22.4427 490.706 22.8053 490.344 23.136C489.992 23.456 489.57 23.712 489.08 23.904C488.6 24.096 488.061 24.192 487.464 24.192ZM496.09 24V11.888H497.578V17.056L497.306 16.912C497.519 16.368 497.86 15.9467 498.33 15.648C498.81 15.3387 499.37 15.184 500.01 15.184C500.628 15.184 501.178 15.3227 501.658 15.6C502.148 15.8773 502.532 16.2613 502.81 16.752C503.098 17.2427 503.242 17.7973 503.242 18.416V24H501.738V18.896C501.738 18.416 501.647 18.0107 501.466 17.68C501.295 17.3493 501.055 17.0933 500.746 16.912C500.436 16.72 500.079 16.624 499.674 16.624C499.279 16.624 498.922 16.72 498.602 16.912C498.282 17.0933 498.031 17.3547 497.85 17.696C497.668 18.0267 497.578 18.4267 497.578 18.896V24H496.09ZM507.899 24.192C507.333 24.192 506.832 24.0907 506.395 23.888C505.968 23.6747 505.632 23.3867 505.387 23.024C505.141 22.6507 505.019 22.224 505.019 21.744C505.019 21.2853 505.115 20.8747 505.307 20.512C505.509 20.1387 505.819 19.824 506.235 19.568C506.661 19.312 507.195 19.1307 507.835 19.024L511.035 18.496V19.744L508.171 20.224C507.616 20.32 507.211 20.496 506.955 20.752C506.709 21.008 506.587 21.3227 506.587 21.696C506.587 22.048 506.725 22.3413 507.003 22.576C507.291 22.8107 507.648 22.928 508.075 22.928C508.619 22.928 509.088 22.816 509.483 22.592C509.888 22.3573 510.203 22.0427 510.427 21.648C510.661 21.2533 510.779 20.816 510.779 20.336V18.144C510.779 17.6747 510.603 17.296 510.251 17.008C509.909 16.7093 509.456 16.56 508.891 16.56C508.4 16.56 507.963 16.688 507.579 16.944C507.205 17.1893 506.928 17.52 506.747 17.936L505.451 17.264C505.611 16.8693 505.867 16.5173 506.219 16.208C506.571 15.888 506.981 15.6373 507.451 15.456C507.92 15.2747 508.411 15.184 508.923 15.184C509.584 15.184 510.165 15.312 510.667 15.568C511.168 15.8133 511.557 16.16 511.835 16.608C512.123 17.0453 512.267 17.5573 512.267 18.144V24H510.811V22.368L511.083 22.464C510.901 22.8053 510.656 23.104 510.347 23.36C510.037 23.616 509.675 23.8187 509.259 23.968C508.843 24.1173 508.389 24.192 507.899 24.192ZM518.494 24.192C517.683 24.192 516.953 23.9947 516.302 23.6C515.662 23.2053 515.155 22.6667 514.782 21.984C514.409 21.3013 514.222 20.5387 514.222 19.696C514.222 18.832 514.409 18.064 514.782 17.392C515.155 16.7093 515.662 16.1707 516.302 15.776C516.953 15.3813 517.683 15.184 518.494 15.184C519.209 15.184 519.843 15.3387 520.398 15.648C520.953 15.9467 521.39 16.352 521.71 16.864L521.47 17.232V11.888H522.974V24H521.518V22.16L521.71 22.416C521.411 22.9813 520.974 23.4187 520.398 23.728C519.833 24.0373 519.198 24.192 518.494 24.192ZM518.622 22.752C519.166 22.752 519.651 22.6187 520.078 22.352C520.505 22.0853 520.841 21.7227 521.086 21.264C521.342 20.7947 521.47 20.272 521.47 19.696C521.47 19.1093 521.342 18.5867 521.086 18.128C520.841 17.6587 520.505 17.2907 520.078 17.024C519.651 16.7573 519.166 16.624 518.622 16.624C518.089 16.624 517.603 16.7627 517.166 17.04C516.739 17.3067 516.403 17.6693 516.158 18.128C515.913 18.576 515.79 19.0987 515.79 19.696C515.79 20.272 515.913 20.7947 516.158 21.264C516.403 21.7227 516.739 22.0853 517.166 22.352C517.593 22.6187 518.078 22.752 518.622 22.752ZM530.571 24.192C530.005 24.192 529.504 24.0907 529.067 23.888C528.64 23.6747 528.304 23.3867 528.059 23.024C527.813 22.6507 527.691 22.224 527.691 21.744C527.691 21.2853 527.787 20.8747 527.979 20.512C528.181 20.1387 528.491 19.824 528.907 19.568C529.333 19.312 529.867 19.1307 530.507 19.024L533.707 18.496V19.744L530.843 20.224C530.288 20.32 529.883 20.496 529.627 20.752C529.381 21.008 529.259 21.3227 529.259 21.696C529.259 22.048 529.397 22.3413 529.675 22.576C529.963 22.8107 530.32 22.928 530.747 22.928C531.291 22.928 531.76 22.816 532.155 22.592C532.56 22.3573 532.875 22.0427 533.099 21.648C533.333 21.2533 533.451 20.816 533.451 20.336V18.144C533.451 17.6747 533.275 17.296 532.923 17.008C532.581 16.7093 532.128 16.56 531.563 16.56C531.072 16.56 530.635 16.688 530.251 16.944C529.877 17.1893 529.6 17.52 529.419 17.936L528.123 17.264C528.283 16.8693 528.539 16.5173 528.891 16.208C529.243 15.888 529.653 15.6373 530.123 15.456C530.592 15.2747 531.083 15.184 531.595 15.184C532.256 15.184 532.837 15.312 533.339 15.568C533.84 15.8133 534.229 16.16 534.507 16.608C534.795 17.0453 534.939 17.5573 534.939 18.144V24H533.483V22.368L533.755 22.464C533.573 22.8053 533.328 23.104 533.019 23.36C532.709 23.616 532.347 23.8187 531.931 23.968C531.515 24.1173 531.061 24.192 530.571 24.192ZM543.099 24.192C542.235 24.192 541.483 23.9787 540.843 23.552C540.203 23.1253 539.75 22.5493 539.483 21.824L540.667 21.248C540.913 21.76 541.249 22.1653 541.675 22.464C542.102 22.7627 542.577 22.912 543.099 22.912C543.569 22.912 543.958 22.8 544.267 22.576C544.577 22.352 544.731 22.0587 544.731 21.696C544.731 21.44 544.657 21.2373 544.507 21.088C544.369 20.928 544.198 20.8053 543.995 20.72C543.793 20.624 543.606 20.5547 543.435 20.512L542.139 20.144C541.361 19.92 540.79 19.6 540.427 19.184C540.075 18.768 539.899 18.2827 539.899 17.728C539.899 17.216 540.027 16.7733 540.283 16.4C540.55 16.016 540.907 15.7173 541.355 15.504C541.814 15.2907 542.326 15.184 542.891 15.184C543.649 15.184 544.326 15.376 544.923 15.76C545.531 16.144 545.963 16.6827 546.219 17.376L545.003 17.936C544.811 17.488 544.523 17.136 544.139 16.88C543.755 16.6133 543.323 16.48 542.843 16.48C542.406 16.48 542.059 16.592 541.803 16.816C541.547 17.0293 541.419 17.3013 541.419 17.632C541.419 17.8773 541.483 18.08 541.611 18.24C541.739 18.3893 541.894 18.5067 542.075 18.592C542.257 18.6667 542.433 18.7307 542.603 18.784L544.011 19.2C544.715 19.4027 545.259 19.7173 545.643 20.144C546.038 20.5707 546.235 21.0827 546.235 21.68C546.235 22.16 546.102 22.592 545.835 22.976C545.569 23.36 545.201 23.6587 544.731 23.872C544.262 24.0853 543.718 24.192 543.099 24.192ZM551.239 24.192C550.621 24.192 550.061 24.048 549.559 23.76C549.069 23.472 548.685 23.072 548.407 22.56C548.141 22.0373 548.007 21.44 548.007 20.768V15.376H549.495V20.608C549.495 21.0347 549.581 21.408 549.751 21.728C549.933 22.048 550.178 22.2987 550.487 22.48C550.807 22.6613 551.17 22.752 551.575 22.752C551.981 22.752 552.338 22.6613 552.647 22.48C552.967 22.2987 553.213 22.0373 553.383 21.696C553.565 21.3547 553.655 20.9493 553.655 20.48V15.376H555.159V24H553.703V22.32L553.943 22.464C553.741 23.008 553.394 23.4347 552.903 23.744C552.423 24.0427 551.869 24.192 551.239 24.192ZM561.465 24.192C560.622 24.192 559.87 23.9947 559.209 23.6C558.558 23.2053 558.046 22.6667 557.673 21.984C557.299 21.3013 557.113 20.5333 557.113 19.68C557.113 18.816 557.299 18.048 557.673 17.376C558.046 16.704 558.558 16.1707 559.209 15.776C559.87 15.3813 560.622 15.184 561.465 15.184C562.03 15.184 562.558 15.2853 563.049 15.488C563.539 15.6907 563.971 15.9627 564.345 16.304C564.718 16.6453 564.99 17.0453 565.161 17.504L563.833 18.144C563.63 17.696 563.321 17.3333 562.905 17.056C562.489 16.768 562.009 16.624 561.465 16.624C560.942 16.624 560.467 16.7573 560.041 17.024C559.625 17.2907 559.294 17.6533 559.049 18.112C558.803 18.5707 558.681 19.0987 558.681 19.696C558.681 20.272 558.803 20.7947 559.049 21.264C559.294 21.7227 559.625 22.0853 560.041 22.352C560.467 22.6187 560.942 22.752 561.465 22.752C562.009 22.752 562.489 22.6133 562.905 22.336C563.321 22.048 563.63 21.6693 563.833 21.2L565.161 21.872C564.99 22.32 564.718 22.72 564.345 23.072C563.971 23.4133 563.539 23.6853 563.049 23.888C562.558 24.0907 562.03 24.192 561.465 24.192ZM571.105 24.192C570.262 24.192 569.51 23.9947 568.849 23.6C568.198 23.2053 567.686 22.6667 567.313 21.984C566.94 21.3013 566.753 20.5333 566.753 19.68C566.753 18.816 566.94 18.048 567.313 17.376C567.686 16.704 568.198 16.1707 568.849 15.776C569.51 15.3813 570.262 15.184 571.105 15.184C571.67 15.184 572.198 15.2853 572.689 15.488C573.18 15.6907 573.612 15.9627 573.985 16.304C574.358 16.6453 574.63 17.0453 574.801 17.504L573.473 18.144C573.27 17.696 572.961 17.3333 572.545 17.056C572.129 16.768 571.649 16.624 571.105 16.624C570.582 16.624 570.108 16.7573 569.681 17.024C569.265 17.2907 568.934 17.6533 568.689 18.112C568.444 18.5707 568.321 19.0987 568.321 19.696C568.321 20.272 568.444 20.7947 568.689 21.264C568.934 21.7227 569.265 22.0853 569.681 22.352C570.108 22.6187 570.582 22.752 571.105 22.752C571.649 22.752 572.129 22.6133 572.545 22.336C572.961 22.048 573.27 21.6693 573.473 21.2L574.801 21.872C574.63 22.32 574.358 22.72 573.985 23.072C573.612 23.4133 573.18 23.6853 572.689 23.888C572.198 24.0907 571.67 24.192 571.105 24.192ZM580.714 24.192C579.882 24.192 579.14 23.9947 578.49 23.6C577.839 23.2053 577.327 22.6667 576.954 21.984C576.58 21.2907 576.394 20.5173 576.394 19.664C576.394 18.8 576.575 18.032 576.938 17.36C577.311 16.688 577.812 16.16 578.442 15.776C579.082 15.3813 579.796 15.184 580.586 15.184C581.226 15.184 581.791 15.3013 582.282 15.536C582.783 15.76 583.204 16.0693 583.546 16.464C583.898 16.848 584.164 17.2907 584.346 17.792C584.538 18.2827 584.634 18.7947 584.634 19.328C584.634 19.4453 584.623 19.5787 584.602 19.728C584.591 19.8667 584.575 20 584.554 20.128H577.482V18.848H583.69L582.986 19.424C583.082 18.8693 583.028 18.3733 582.826 17.936C582.623 17.4987 582.324 17.152 581.93 16.896C581.535 16.64 581.087 16.512 580.586 16.512C580.084 16.512 579.626 16.64 579.21 16.896C578.794 17.152 578.468 17.52 578.234 18C578.01 18.4693 577.919 19.0293 577.962 19.68C577.919 20.3093 578.015 20.864 578.25 21.344C578.495 21.8133 578.836 22.1813 579.274 22.448C579.722 22.704 580.207 22.832 580.73 22.832C581.306 22.832 581.791 22.6987 582.186 22.432C582.58 22.1653 582.9 21.824 583.146 21.408L584.394 22.048C584.223 22.4427 583.956 22.8053 583.594 23.136C583.242 23.456 582.82 23.712 582.33 23.904C581.85 24.096 581.311 24.192 580.714 24.192ZM589.662 24.192C588.798 24.192 588.046 23.9787 587.406 23.552C586.766 23.1253 586.313 22.5493 586.046 21.824L587.23 21.248C587.475 21.76 587.811 22.1653 588.238 22.464C588.665 22.7627 589.139 22.912 589.662 22.912C590.131 22.912 590.521 22.8 590.83 22.576C591.139 22.352 591.294 22.0587 591.294 21.696C591.294 21.44 591.219 21.2373 591.07 21.088C590.931 20.928 590.761 20.8053 590.558 20.72C590.355 20.624 590.169 20.5547 589.998 20.512L588.702 20.144C587.923 19.92 587.353 19.6 586.99 19.184C586.638 18.768 586.462 18.2827 586.462 17.728C586.462 17.216 586.59 16.7733 586.846 16.4C587.113 16.016 587.47 15.7173 587.918 15.504C588.377 15.2907 588.889 15.184 589.454 15.184C590.211 15.184 590.889 15.376 591.486 15.76C592.094 16.144 592.526 16.6827 592.782 17.376L591.566 17.936C591.374 17.488 591.086 17.136 590.702 16.88C590.318 16.6133 589.886 16.48 589.406 16.48C588.969 16.48 588.622 16.592 588.366 16.816C588.11 17.0293 587.982 17.3013 587.982 17.632C587.982 17.8773 588.046 18.08 588.174 18.24C588.302 18.3893 588.457 18.5067 588.638 18.592C588.819 18.6667 588.995 18.7307 589.166 18.784L590.574 19.2C591.278 19.4027 591.822 19.7173 592.206 20.144C592.601 20.5707 592.798 21.0827 592.798 21.68C592.798 22.16 592.665 22.592 592.398 22.976C592.131 23.36 591.763 23.6587 591.294 23.872C590.825 24.0853 590.281 24.192 589.662 24.192ZM597.834 24.192C596.97 24.192 596.218 23.9787 595.578 23.552C594.938 23.1253 594.484 22.5493 594.218 21.824L595.402 21.248C595.647 21.76 595.983 22.1653 596.41 22.464C596.836 22.7627 597.311 22.912 597.834 22.912C598.303 22.912 598.692 22.8 599.002 22.576C599.311 22.352 599.466 22.0587 599.466 21.696C599.466 21.44 599.391 21.2373 599.242 21.088C599.103 20.928 598.932 20.8053 598.73 20.72C598.527 20.624 598.34 20.5547 598.17 20.512L596.874 20.144C596.095 19.92 595.524 19.6 595.162 19.184C594.81 18.768 594.634 18.2827 594.634 17.728C594.634 17.216 594.762 16.7733 595.018 16.4C595.284 16.016 595.642 15.7173 596.09 15.504C596.548 15.2907 597.06 15.184 597.626 15.184C598.383 15.184 599.06 15.376 599.658 15.76C600.266 16.144 600.698 16.6827 600.954 17.376L599.738 17.936C599.546 17.488 599.258 17.136 598.874 16.88C598.49 16.6133 598.058 16.48 597.578 16.48C597.14 16.48 596.794 16.592 596.538 16.816C596.282 17.0293 596.154 17.3013 596.154 17.632C596.154 17.8773 596.218 18.08 596.346 18.24C596.474 18.3893 596.628 18.5067 596.81 18.592C596.991 18.6667 597.167 18.7307 597.338 18.784L598.746 19.2C599.45 19.4027 599.994 19.7173 600.378 20.144C600.772 20.5707 600.97 21.0827 600.97 21.68C600.97 22.16 600.836 22.592 600.57 22.976C600.303 23.36 599.935 23.6587 599.466 23.872C598.996 24.0853 598.452 24.192 597.834 24.192ZM603.83 24V16.8H602.182V15.376H603.83V14.768C603.83 14.1493 603.963 13.6267 604.23 13.2C604.507 12.7733 604.87 12.448 605.318 12.224C605.776 12 606.283 11.888 606.838 11.888C606.955 11.888 607.083 11.8987 607.222 11.92C607.371 11.9307 607.494 11.9467 607.59 11.968V13.296C607.504 13.2747 607.403 13.264 607.286 13.264C607.168 13.2533 607.078 13.248 607.014 13.248C606.523 13.248 606.118 13.3653 605.798 13.6C605.488 13.8347 605.334 14.224 605.334 14.768V15.376H607.382V16.8H605.334V24H603.83ZM612.333 24.192C611.714 24.192 611.154 24.048 610.653 23.76C610.162 23.472 609.778 23.072 609.501 22.56C609.234 22.0373 609.101 21.44 609.101 20.768V15.376H610.589V20.608C610.589 21.0347 610.674 21.408 610.845 21.728C611.026 22.048 611.272 22.2987 611.581 22.48C611.901 22.6613 612.264 22.752 612.669 22.752C613.074 22.752 613.432 22.6613 613.741 22.48C614.061 22.2987 614.306 22.0373 614.477 21.696C614.658 21.3547 614.749 20.9493 614.749 20.48V15.376H616.253V24H614.797V22.32L615.037 22.464C614.834 23.008 614.488 23.4347 613.997 23.744C613.517 24.0427 612.962 24.192 612.333 24.192ZM618.558 24V11.888H620.046V24H618.558ZM629.121 24.192C628.278 24.192 627.526 23.9947 626.865 23.6C626.214 23.2053 625.702 22.6667 625.329 21.984C624.955 21.3013 624.769 20.5333 624.769 19.68C624.769 18.816 624.955 18.048 625.329 17.376C625.702 16.704 626.214 16.1707 626.865 15.776C627.526 15.3813 628.278 15.184 629.121 15.184C629.686 15.184 630.214 15.2853 630.705 15.488C631.195 15.6907 631.627 15.9627 632.001 16.304C632.374 16.6453 632.646 17.0453 632.817 17.504L631.489 18.144C631.286 17.696 630.977 17.3333 630.561 17.056C630.145 16.768 629.665 16.624 629.121 16.624C628.598 16.624 628.123 16.7573 627.697 17.024C627.281 17.2907 626.95 17.6533 626.705 18.112C626.459 18.5707 626.337 19.0987 626.337 19.696C626.337 20.272 626.459 20.7947 626.705 21.264C626.95 21.7227 627.281 22.0853 627.697 22.352C628.123 22.6187 628.598 22.752 629.121 22.752C629.665 22.752 630.145 22.6133 630.561 22.336C630.977 22.048 631.286 21.6693 631.489 21.2L632.817 21.872C632.646 22.32 632.374 22.72 632.001 23.072C631.627 23.4133 631.195 23.6853 630.705 23.888C630.214 24.0907 629.686 24.192 629.121 24.192ZM638.857 24.192C638.025 24.192 637.273 24 636.601 23.616C635.929 23.2213 635.396 22.6827 635.001 22C634.607 21.3173 634.409 20.544 634.409 19.68C634.409 18.816 634.601 18.048 634.985 17.376C635.38 16.704 635.913 16.1707 636.585 15.776C637.257 15.3813 638.015 15.184 638.857 15.184C639.689 15.184 640.441 15.3813 641.113 15.776C641.785 16.16 642.313 16.688 642.697 17.36C643.092 18.032 643.289 18.8053 643.289 19.68C643.289 20.5547 643.087 21.3333 642.681 22.016C642.276 22.688 641.737 23.2213 641.065 23.616C640.404 24 639.668 24.192 638.857 24.192ZM638.857 22.752C639.391 22.752 639.871 22.6187 640.297 22.352C640.735 22.0853 641.076 21.7173 641.321 21.248C641.577 20.7787 641.705 20.256 641.705 19.68C641.705 19.0933 641.577 18.576 641.321 18.128C641.076 17.6693 640.735 17.3067 640.297 17.04C639.871 16.7627 639.391 16.624 638.857 16.624C638.313 16.624 637.823 16.7627 637.385 17.04C636.959 17.3067 636.617 17.6693 636.361 18.128C636.105 18.576 635.977 19.0933 635.977 19.68C635.977 20.256 636.105 20.7787 636.361 21.248C636.617 21.7173 636.959 22.0853 637.385 22.352C637.823 22.6187 638.313 22.752 638.857 22.752ZM645.23 24V15.376H646.686V17.056L646.446 16.912C646.659 16.368 647.001 15.9467 647.47 15.648C647.95 15.3387 648.51 15.184 649.15 15.184C649.769 15.184 650.318 15.3227 650.798 15.6C651.289 15.8773 651.673 16.2613 651.95 16.752C652.238 17.2427 652.382 17.7973 652.382 18.416V24H650.878V18.896C650.878 18.416 650.793 18.0107 650.622 17.68C650.451 17.3493 650.206 17.0933 649.886 16.912C649.577 16.72 649.219 16.624 648.814 16.624C648.409 16.624 648.046 16.72 647.726 16.912C647.417 17.0933 647.171 17.3547 646.99 17.696C646.809 18.0267 646.718 18.4267 646.718 18.896V24H645.23ZM655.423 24V16.8H653.775V15.376H655.423V14.768C655.423 14.1493 655.557 13.6267 655.823 13.2C656.101 12.7733 656.463 12.448 656.911 12.224C657.37 12 657.877 11.888 658.431 11.888C658.549 11.888 658.677 11.8987 658.815 11.92C658.965 11.9307 659.087 11.9467 659.183 11.968V13.296C659.098 13.2747 658.997 13.264 658.879 13.264C658.762 13.2533 658.671 13.248 658.607 13.248C658.117 13.248 657.711 13.3653 657.391 13.6C657.082 13.8347 656.927 14.224 656.927 14.768V15.376H658.975V16.8H656.927V24H655.423ZM664.433 24.192C663.601 24.192 662.859 23.9947 662.209 23.6C661.558 23.2053 661.046 22.6667 660.673 21.984C660.299 21.2907 660.113 20.5173 660.113 19.664C660.113 18.8 660.294 18.032 660.657 17.36C661.03 16.688 661.531 16.16 662.161 15.776C662.801 15.3813 663.515 15.184 664.305 15.184C664.945 15.184 665.51 15.3013 666.001 15.536C666.502 15.76 666.923 16.0693 667.265 16.464C667.617 16.848 667.883 17.2907 668.065 17.792C668.257 18.2827 668.352 18.7947 668.352 19.328C668.352 19.4453 668.342 19.5787 668.321 19.728C668.31 19.8667 668.294 20 668.273 20.128H661.201V18.848H667.409L666.705 19.424C666.801 18.8693 666.747 18.3733 666.545 17.936C666.342 17.4987 666.043 17.152 665.649 16.896C665.254 16.64 664.806 16.512 664.305 16.512C663.803 16.512 663.345 16.64 662.929 16.896C662.513 17.152 662.187 17.52 661.953 18C661.729 18.4693 661.638 19.0293 661.681 19.68C661.638 20.3093 661.734 20.864 661.969 21.344C662.214 21.8133 662.555 22.1813 662.993 22.448C663.441 22.704 663.926 22.832 664.449 22.832C665.025 22.832 665.51 22.6987 665.905 22.432C666.299 22.1653 666.619 21.824 666.865 21.408L668.113 22.048C667.942 22.4427 667.675 22.8053 667.312 23.136C666.961 23.456 666.539 23.712 666.049 23.904C665.569 24.096 665.03 24.192 664.433 24.192ZM670.293 24V15.376H671.749V16.96L671.589 16.736C671.791 16.2453 672.101 15.8827 672.517 15.648C672.933 15.4027 673.439 15.28 674.037 15.28H674.565V16.688H673.813C673.205 16.688 672.714 16.88 672.341 17.264C671.967 17.6373 671.781 18.1707 671.781 18.864V24H670.293ZM679.854 24.192C679.022 24.192 678.281 23.9947 677.63 23.6C676.98 23.2053 676.468 22.6667 676.094 21.984C675.721 21.2907 675.534 20.5173 675.534 19.664C675.534 18.8 675.716 18.032 676.078 17.36C676.452 16.688 676.953 16.16 677.582 15.776C678.222 15.3813 678.937 15.184 679.726 15.184C680.366 15.184 680.932 15.3013 681.422 15.536C681.924 15.76 682.345 16.0693 682.686 16.464C683.038 16.848 683.305 17.2907 683.486 17.792C683.678 18.2827 683.774 18.7947 683.774 19.328C683.774 19.4453 683.764 19.5787 683.742 19.728C683.732 19.8667 683.716 20 683.694 20.128H676.622V18.848H682.83L682.126 19.424C682.222 18.8693 682.169 18.3733 681.966 17.936C681.764 17.4987 681.465 17.152 681.07 16.896C680.676 16.64 680.228 16.512 679.726 16.512C679.225 16.512 678.766 16.64 678.35 16.896C677.934 17.152 677.609 17.52 677.374 18C677.15 18.4693 677.06 19.0293 677.102 19.68C677.06 20.3093 677.156 20.864 677.39 21.344C677.636 21.8133 677.977 22.1813 678.414 22.448C678.862 22.704 679.348 22.832 679.87 22.832C680.446 22.832 680.932 22.6987 681.326 22.432C681.721 22.1653 682.041 21.824 682.286 21.408L683.534 22.048C683.364 22.4427 683.097 22.8053 682.734 23.136C682.382 23.456 681.961 23.712 681.47 23.904C680.99 24.096 680.452 24.192 679.854 24.192ZM685.715 24V15.376H687.171V17.056L686.931 16.912C687.144 16.368 687.485 15.9467 687.955 15.648C688.435 15.3387 688.995 15.184 689.635 15.184C690.253 15.184 690.803 15.3227 691.283 15.6C691.773 15.8773 692.157 16.2613 692.435 16.752C692.723 17.2427 692.867 17.7973 692.867 18.416V24H691.363V18.896C691.363 18.416 691.277 18.0107 691.107 17.68C690.936 17.3493 690.691 17.0933 690.371 16.912C690.061 16.72 689.704 16.624 689.299 16.624C688.893 16.624 688.531 16.72 688.211 16.912C687.901 17.0933 687.656 17.3547 687.475 17.696C687.293 18.0267 687.203 18.4267 687.203 18.896V24H685.715ZM698.996 24.192C698.153 24.192 697.401 23.9947 696.74 23.6C696.089 23.2053 695.577 22.6667 695.204 21.984C694.83 21.3013 694.644 20.5333 694.644 19.68C694.644 18.816 694.83 18.048 695.204 17.376C695.577 16.704 696.089 16.1707 696.74 15.776C697.401 15.3813 698.153 15.184 698.996 15.184C699.561 15.184 700.089 15.2853 700.58 15.488C701.07 15.6907 701.502 15.9627 701.876 16.304C702.249 16.6453 702.521 17.0453 702.692 17.504L701.364 18.144C701.161 17.696 700.852 17.3333 700.436 17.056C700.02 16.768 699.54 16.624 698.996 16.624C698.473 16.624 697.998 16.7573 697.572 17.024C697.156 17.2907 696.825 17.6533 696.58 18.112C696.334 18.5707 696.212 19.0987 696.212 19.696C696.212 20.272 696.334 20.7947 696.58 21.264C696.825 21.7227 697.156 22.0853 697.572 22.352C697.998 22.6187 698.473 22.752 698.996 22.752C699.54 22.752 700.02 22.6133 700.436 22.336C700.852 22.048 701.161 21.6693 701.364 21.2L702.692 21.872C702.521 22.32 702.249 22.72 701.876 23.072C701.502 23.4133 701.07 23.6853 700.58 23.888C700.089 24.0907 699.561 24.192 698.996 24.192ZM708.604 24.192C707.772 24.192 707.031 23.9947 706.38 23.6C705.73 23.2053 705.218 22.6667 704.844 21.984C704.471 21.2907 704.284 20.5173 704.284 19.664C704.284 18.8 704.466 18.032 704.828 17.36C705.202 16.688 705.703 16.16 706.332 15.776C706.972 15.3813 707.687 15.184 708.476 15.184C709.116 15.184 709.682 15.3013 710.172 15.536C710.674 15.76 711.095 16.0693 711.436 16.464C711.788 16.848 712.055 17.2907 712.236 17.792C712.428 18.2827 712.524 18.7947 712.524 19.328C712.524 19.4453 712.514 19.5787 712.492 19.728C712.482 19.8667 712.466 20 712.444 20.128H705.372V18.848H711.58L710.876 19.424C710.972 18.8693 710.919 18.3733 710.716 17.936C710.514 17.4987 710.215 17.152 709.82 16.896C709.426 16.64 708.978 16.512 708.476 16.512C707.975 16.512 707.516 16.64 707.1 16.896C706.684 17.152 706.359 17.52 706.124 18C705.9 18.4693 705.81 19.0293 705.852 19.68C705.81 20.3093 705.906 20.864 706.14 21.344C706.386 21.8133 706.727 22.1813 707.164 22.448C707.612 22.704 708.098 22.832 708.62 22.832C709.196 22.832 709.682 22.6987 710.076 22.432C710.471 22.1653 710.791 21.824 711.036 21.408L712.284 22.048C712.114 22.4427 711.847 22.8053 711.484 23.136C711.132 23.456 710.711 23.712 710.22 23.904C709.74 24.096 709.202 24.192 708.604 24.192ZM719.214 24L716.254 15.376H717.902L720.254 22.592L719.678 22.576L721.982 15.376H723.39L725.694 22.576L725.118 22.592L727.486 15.376H729.118L726.158 24H724.734L722.462 16.8H722.91L720.638 24H719.214ZM730.449 24V15.376H731.937V24H730.449ZM730.449 14V12.08H731.937V14H730.449ZM737.75 24.096C736.907 24.096 736.256 23.856 735.798 23.376C735.35 22.896 735.126 22.2187 735.126 21.344V16.8H733.558V15.376H733.878C734.262 15.376 734.566 15.2587 734.79 15.024C735.014 14.7893 735.126 14.48 735.126 14.096V13.392H736.614V15.376H738.55V16.8H736.614V21.296C736.614 21.584 736.656 21.8347 736.742 22.048C736.838 22.2613 736.992 22.432 737.206 22.56C737.419 22.6773 737.702 22.736 738.054 22.736C738.128 22.736 738.219 22.7307 738.326 22.72C738.443 22.7093 738.55 22.6987 738.646 22.688V24C738.507 24.032 738.352 24.0533 738.182 24.064C738.011 24.0853 737.867 24.096 737.75 24.096ZM740.59 24V11.888H742.078V17.056L741.806 16.912C742.019 16.368 742.36 15.9467 742.83 15.648C743.31 15.3387 743.87 15.184 744.51 15.184C745.128 15.184 745.678 15.3227 746.158 15.6C746.648 15.8773 747.032 16.2613 747.31 16.752C747.598 17.2427 747.742 17.7973 747.742 18.416V24H746.238V18.896C746.238 18.416 746.147 18.0107 745.966 17.68C745.795 17.3493 745.555 17.0933 745.246 16.912C744.936 16.72 744.579 16.624 744.174 16.624C743.779 16.624 743.422 16.72 743.102 16.912C742.782 17.0933 742.531 17.3547 742.35 17.696C742.168 18.0267 742.078 18.4267 742.078 18.896V24H740.59Z" fill="#1C1C1C"/>
<rect width="1216" height="135" transform="translate(0 34)" fill="#F7F8DF"/>
<g clip-path="url(#clip0_80_290)">
<path d="M424 79C424 79 422.5 79 422.5 77.5C422.5 76 424 71.5 430 71.5C436 71.5 437.5 76 437.5 77.5C437.5 79 436 79 436 79H424ZM430 70C431.193 70 432.338 69.5259 433.182 68.682C434.026 67.8381 434.5 66.6935 434.5 65.5C434.5 64.3065 434.026 63.1619 433.182 62.318C432.338 61.4741 431.193 61 430 61C428.807 61 427.662 61.4741 426.818 62.318C425.974 63.1619 425.5 64.3065 425.5 65.5C425.5 66.6935 425.974 67.8381 426.818 68.682C427.662 69.5259 428.807 70 430 70ZM421.324 79C421.102 78.5317 420.991 78.0183 421 77.5C421 75.4675 422.02 73.375 423.904 71.92C422.964 71.6297 421.984 71.4879 421 71.5C415 71.5 413.5 76 413.5 77.5C413.5 79 415 79 415 79H421.324ZM420.25 70C421.245 70 422.198 69.6049 422.902 68.9017C423.605 68.1984 424 67.2446 424 66.25C424 65.2554 423.605 64.3016 422.902 63.5983C422.198 62.8951 421.245 62.5 420.25 62.5C419.255 62.5 418.302 62.8951 417.598 63.5983C416.895 64.3016 416.5 65.2554 416.5 66.25C416.5 67.2446 416.895 68.1984 417.598 68.9017C418.302 69.6049 419.255 70 420.25 70Z" fill="#1C1C1C"/>
</g>
<path d="M403.2 114V111.96L408.096 106.728C409.056 105.704 409.808 104.88 410.352 104.256C410.912 103.616 411.312 103.056 411.552 102.576C411.808 102.096 411.936 101.592 411.936 101.064C411.936 100.2 411.672 99.536 411.144 99.072C410.616 98.592 409.936 98.352 409.104 98.352C408.24 98.352 407.496 98.6 406.872 99.096C406.248 99.576 405.816 100.28 405.576 101.208L403.08 100.488C403.272 99.544 403.656 98.728 404.232 98.04C404.808 97.336 405.512 96.792 406.344 96.408C407.192 96.024 408.104 95.832 409.08 95.832C410.216 95.832 411.208 96.048 412.056 96.48C412.904 96.896 413.56 97.48 414.024 98.232C414.504 98.984 414.744 99.856 414.744 100.848C414.744 101.504 414.616 102.144 414.36 102.768C414.12 103.376 413.744 104.024 413.232 104.712C412.72 105.384 412.064 106.144 411.264 106.992L406.944 111.6H415.08V114H403.2ZM423.52 114.288C422.576 114.288 421.688 114.12 420.856 113.784C420.024 113.432 419.304 112.944 418.696 112.32C418.088 111.696 417.656 110.944 417.4 110.064L419.776 109.152C420.08 110 420.576 110.648 421.264 111.096C421.952 111.544 422.704 111.768 423.52 111.768C424.192 111.768 424.784 111.616 425.296 111.312C425.808 111.008 426.208 110.592 426.496 110.064C426.8 109.536 426.952 108.936 426.952 108.264C426.952 107.576 426.8 106.976 426.496 106.464C426.208 105.936 425.808 105.528 425.296 105.24C424.784 104.936 424.192 104.784 423.52 104.784C422.848 104.784 422.232 104.936 421.672 105.24C421.112 105.544 420.704 105.952 420.448 106.464L418.168 105.96L419.56 96.12H429.088V98.52H420.664L421.744 97.344L420.712 104.88L419.824 104.28C420.304 103.608 420.888 103.12 421.576 102.816C422.264 102.512 423.048 102.36 423.928 102.36C425.096 102.36 426.112 102.624 426.976 103.152C427.856 103.664 428.536 104.368 429.016 105.264C429.512 106.144 429.76 107.144 429.76 108.264C429.76 109.4 429.488 110.424 428.944 111.336C428.4 112.248 427.656 112.968 426.712 113.496C425.784 114.024 424.72 114.288 423.52 114.288ZM439.725 114.288C438.301 114.288 437.053 113.904 435.981 113.136C434.909 112.352 434.069 111.272 433.461 109.896C432.869 108.504 432.573 106.888 432.573 105.048C432.573 103.192 432.869 101.576 433.461 100.2C434.069 98.824 434.901 97.752 435.957 96.984C437.029 96.216 438.277 95.832 439.701 95.832C441.125 95.832 442.365 96.216 443.421 96.984C444.493 97.752 445.325 98.832 445.917 100.224C446.525 101.6 446.829 103.208 446.829 105.048C446.829 106.888 446.533 108.504 445.941 109.896C445.349 111.272 444.517 112.352 443.445 113.136C442.389 113.904 441.149 114.288 439.725 114.288ZM439.725 111.696C440.605 111.696 441.365 111.424 442.005 110.88C442.645 110.336 443.141 109.568 443.493 108.576C443.845 107.584 444.021 106.408 444.021 105.048C444.021 103.688 443.845 102.512 443.493 101.52C443.141 100.528 442.645 99.76 442.005 99.216C441.365 98.672 440.597 98.4 439.701 98.4C438.821 98.4 438.061 98.672 437.421 99.216C436.781 99.76 436.285 100.528 435.933 101.52C435.581 102.512 435.405 103.688 435.405 105.048C435.405 106.392 435.581 107.568 435.933 108.576C436.285 109.568 436.781 110.336 437.421 110.88C438.077 111.424 438.845 111.696 439.725 111.696Z" fill="black"/>
<path d="M380.828 143V131.08H385.036C385.825 131.08 386.519 131.229 387.116 131.528C387.713 131.827 388.177 132.253 388.508 132.808C388.849 133.363 389.02 134.013 389.02 134.76C389.02 135.507 388.849 136.157 388.508 136.712C388.177 137.256 387.713 137.683 387.116 137.992C386.529 138.291 385.836 138.44 385.036 138.44H382.396V143H380.828ZM382.396 137H385.084C385.564 137 385.98 136.909 386.332 136.728C386.684 136.547 386.956 136.285 387.148 135.944C387.34 135.603 387.436 135.208 387.436 134.76C387.436 134.301 387.34 133.907 387.148 133.576C386.956 133.235 386.684 132.973 386.332 132.792C385.98 132.611 385.564 132.52 385.084 132.52H382.396V137ZM392.899 143.192C392.333 143.192 391.832 143.091 391.395 142.888C390.968 142.675 390.632 142.387 390.387 142.024C390.141 141.651 390.019 141.224 390.019 140.744C390.019 140.285 390.115 139.875 390.307 139.512C390.509 139.139 390.819 138.824 391.235 138.568C391.661 138.312 392.195 138.131 392.835 138.024L396.035 137.496V138.744L393.171 139.224C392.616 139.32 392.211 139.496 391.955 139.752C391.709 140.008 391.587 140.323 391.587 140.696C391.587 141.048 391.725 141.341 392.003 141.576C392.291 141.811 392.648 141.928 393.075 141.928C393.619 141.928 394.088 141.816 394.483 141.592C394.888 141.357 395.203 141.043 395.427 140.648C395.661 140.253 395.779 139.816 395.779 139.336V137.144C395.779 136.675 395.603 136.296 395.251 136.008C394.909 135.709 394.456 135.56 393.891 135.56C393.4 135.56 392.963 135.688 392.579 135.944C392.205 136.189 391.928 136.52 391.747 136.936L390.451 136.264C390.611 135.869 390.867 135.517 391.219 135.208C391.571 134.888 391.981 134.637 392.451 134.456C392.92 134.275 393.411 134.184 393.923 134.184C394.584 134.184 395.165 134.312 395.667 134.568C396.168 134.813 396.557 135.16 396.835 135.608C397.123 136.045 397.267 136.557 397.267 137.144V143H395.811V141.368L396.083 141.464C395.901 141.805 395.656 142.104 395.347 142.36C395.037 142.616 394.675 142.819 394.259 142.968C393.843 143.117 393.389 143.192 392.899 143.192ZM399.574 143V134.376H401.03V135.96L400.87 135.736C401.073 135.245 401.382 134.883 401.798 134.648C402.214 134.403 402.721 134.28 403.318 134.28H403.846V135.688H403.094C402.486 135.688 401.995 135.88 401.622 136.264C401.249 136.637 401.062 137.171 401.062 137.864V143H399.574ZM408.75 143.096C407.907 143.096 407.256 142.856 406.798 142.376C406.35 141.896 406.126 141.219 406.126 140.344V135.8H404.558V134.376H404.878C405.262 134.376 405.566 134.259 405.79 134.024C406.014 133.789 406.126 133.48 406.126 133.096V132.392H407.614V134.376H409.55V135.8H407.614V140.296C407.614 140.584 407.656 140.835 407.742 141.048C407.838 141.261 407.992 141.432 408.206 141.56C408.419 141.677 408.702 141.736 409.054 141.736C409.128 141.736 409.219 141.731 409.326 141.72C409.443 141.709 409.55 141.699 409.646 141.688V143C409.507 143.032 409.352 143.053 409.182 143.064C409.011 143.085 408.867 143.096 408.75 143.096ZM411.59 143V134.376H413.078V143H411.59ZM411.59 133V131.08H413.078V133H411.59ZM419.386 143.192C418.544 143.192 417.792 142.995 417.13 142.6C416.48 142.205 415.968 141.667 415.594 140.984C415.221 140.301 415.034 139.533 415.034 138.68C415.034 137.816 415.221 137.048 415.594 136.376C415.968 135.704 416.48 135.171 417.13 134.776C417.792 134.381 418.544 134.184 419.386 134.184C419.952 134.184 420.48 134.285 420.97 134.488C421.461 134.691 421.893 134.963 422.266 135.304C422.64 135.645 422.912 136.045 423.082 136.504L421.754 137.144C421.552 136.696 421.242 136.333 420.826 136.056C420.41 135.768 419.93 135.624 419.386 135.624C418.864 135.624 418.389 135.757 417.962 136.024C417.546 136.291 417.216 136.653 416.97 137.112C416.725 137.571 416.602 138.099 416.602 138.696C416.602 139.272 416.725 139.795 416.97 140.264C417.216 140.723 417.546 141.085 417.962 141.352C418.389 141.619 418.864 141.752 419.386 141.752C419.93 141.752 420.41 141.613 420.826 141.336C421.242 141.048 421.552 140.669 421.754 140.2L423.082 140.872C422.912 141.32 422.64 141.72 422.266 142.072C421.893 142.413 421.461 142.685 420.97 142.888C420.48 143.091 419.952 143.192 419.386 143.192ZM425.027 143V134.376H426.515V143H425.027ZM425.027 133V131.08H426.515V133H425.027ZM428.824 146.2V134.376H430.28V136.232L430.088 135.864C430.408 135.352 430.845 134.947 431.4 134.648C431.955 134.339 432.589 134.184 433.304 134.184C434.115 134.184 434.84 134.381 435.48 134.776C436.131 135.171 436.643 135.709 437.016 136.392C437.389 137.064 437.576 137.832 437.576 138.696C437.576 139.539 437.389 140.301 437.016 140.984C436.643 141.667 436.131 142.205 435.48 142.6C434.84 142.995 434.109 143.192 433.288 143.192C432.595 143.192 431.96 143.037 431.384 142.728C430.819 142.419 430.381 141.981 430.072 141.416L430.312 141.16V146.2H428.824ZM433.176 141.752C433.72 141.752 434.205 141.619 434.632 141.352C435.059 141.085 435.389 140.723 435.624 140.264C435.869 139.795 435.992 139.272 435.992 138.696C435.992 138.099 435.869 137.576 435.624 137.128C435.389 136.669 435.059 136.307 434.632 136.04C434.205 135.763 433.72 135.624 433.176 135.624C432.632 135.624 432.141 135.757 431.704 136.024C431.277 136.291 430.936 136.659 430.68 137.128C430.435 137.587 430.312 138.109 430.312 138.696C430.312 139.272 430.435 139.795 430.68 140.264C430.936 140.723 431.277 141.085 431.704 141.352C432.141 141.619 432.632 141.752 433.176 141.752ZM442.055 143.192C441.49 143.192 440.988 143.091 440.551 142.888C440.124 142.675 439.788 142.387 439.543 142.024C439.298 141.651 439.175 141.224 439.175 140.744C439.175 140.285 439.271 139.875 439.463 139.512C439.666 139.139 439.975 138.824 440.391 138.568C440.818 138.312 441.351 138.131 441.991 138.024L445.191 137.496V138.744L442.327 139.224C441.772 139.32 441.367 139.496 441.111 139.752C440.866 140.008 440.743 140.323 440.743 140.696C440.743 141.048 440.882 141.341 441.159 141.576C441.447 141.811 441.804 141.928 442.231 141.928C442.775 141.928 443.244 141.816 443.639 141.592C444.044 141.357 444.359 141.043 444.583 140.648C444.818 140.253 444.935 139.816 444.935 139.336V137.144C444.935 136.675 444.759 136.296 444.407 136.008C444.066 135.709 443.612 135.56 443.047 135.56C442.556 135.56 442.119 135.688 441.735 135.944C441.362 136.189 441.084 136.52 440.903 136.936L439.607 136.264C439.767 135.869 440.023 135.517 440.375 135.208C440.727 134.888 441.138 134.637 441.607 134.456C442.076 134.275 442.567 134.184 443.079 134.184C443.74 134.184 444.322 134.312 444.823 134.568C445.324 134.813 445.714 135.16 445.991 135.608C446.279 136.045 446.423 136.557 446.423 137.144V143H444.967V141.368L445.239 141.464C445.058 141.805 444.812 142.104 444.503 142.36C444.194 142.616 443.831 142.819 443.415 142.968C442.999 143.117 442.546 143.192 442.055 143.192ZM448.73 143V134.376H450.186V136.056L449.946 135.912C450.159 135.368 450.501 134.947 450.97 134.648C451.45 134.339 452.01 134.184 452.65 134.184C453.269 134.184 453.818 134.323 454.298 134.6C454.789 134.877 455.173 135.261 455.45 135.752C455.738 136.243 455.882 136.797 455.882 137.416V143H454.378V137.896C454.378 137.416 454.293 137.011 454.122 136.68C453.951 136.349 453.706 136.093 453.386 135.912C453.077 135.72 452.719 135.624 452.314 135.624C451.909 135.624 451.546 135.72 451.226 135.912C450.917 136.093 450.671 136.355 450.49 136.696C450.309 137.027 450.218 137.427 450.218 137.896V143H448.73ZM461.515 143.096C460.673 143.096 460.022 142.856 459.563 142.376C459.115 141.896 458.891 141.219 458.891 140.344V135.8H457.323V134.376H457.643C458.027 134.376 458.331 134.259 458.555 134.024C458.779 133.789 458.891 133.48 458.891 133.096V132.392H460.379V134.376H462.315V135.8H460.379V140.296C460.379 140.584 460.422 140.835 460.507 141.048C460.603 141.261 460.758 141.432 460.971 141.56C461.185 141.677 461.467 141.736 461.819 141.736C461.894 141.736 461.985 141.731 462.091 141.72C462.209 141.709 462.315 141.699 462.411 141.688V143C462.273 143.032 462.118 143.053 461.947 143.064C461.777 143.085 461.633 143.096 461.515 143.096ZM467.443 143.192C466.579 143.192 465.827 142.979 465.187 142.552C464.547 142.125 464.094 141.549 463.827 140.824L465.011 140.248C465.256 140.76 465.592 141.165 466.019 141.464C466.446 141.763 466.92 141.912 467.443 141.912C467.912 141.912 468.302 141.8 468.611 141.576C468.92 141.352 469.075 141.059 469.075 140.696C469.075 140.44 469 140.237 468.851 140.088C468.712 139.928 468.542 139.805 468.339 139.72C468.136 139.624 467.95 139.555 467.779 139.512L466.483 139.144C465.704 138.92 465.134 138.6 464.771 138.184C464.419 137.768 464.243 137.283 464.243 136.728C464.243 136.216 464.371 135.773 464.627 135.4C464.894 135.016 465.251 134.717 465.699 134.504C466.158 134.291 466.67 134.184 467.235 134.184C467.992 134.184 468.67 134.376 469.267 134.76C469.875 135.144 470.307 135.683 470.563 136.376L469.347 136.936C469.155 136.488 468.867 136.136 468.483 135.88C468.099 135.613 467.667 135.48 467.187 135.48C466.75 135.48 466.403 135.592 466.147 135.816C465.891 136.029 465.763 136.301 465.763 136.632C465.763 136.877 465.827 137.08 465.955 137.24C466.083 137.389 466.238 137.507 466.419 137.592C466.6 137.667 466.776 137.731 466.947 137.784L468.355 138.2C469.059 138.403 469.603 138.717 469.987 139.144C470.382 139.571 470.579 140.083 470.579 140.68C470.579 141.16 470.446 141.592 470.179 141.976C469.912 142.36 469.544 142.659 469.075 142.872C468.606 143.085 468.062 143.192 467.443 143.192Z" fill="#464A0F"/>
<path fill-rule="evenodd" clip-rule="evenodd" d="M612.25 78.25H619.75V79.75H612.25V78.25Z" fill="#1E293B"/>
<path fill-rule="evenodd" clip-rule="evenodd" d="M610.75 67V69.25C610.75 72.1358 613.114 74.5 616 74.5C618.886 74.5 621.25 72.1358 621.25 69.25V67H622.75V69.25C622.75 72.9642 619.714 76 616 76C612.286 76 609.25 72.9642 609.25 69.25V67H610.75Z" fill="#1E293B"/>
<path fill-rule="evenodd" clip-rule="evenodd" d="M616.75 74.5V79.75H615.25V74.5H616.75Z" fill="#1E293B"/>
<path d="M616 73C615.505 72.9989 615.015 72.8983 614.56 72.7042C614.105 72.5102 613.693 72.2266 613.349 71.8703C612.646 71.1608 612.251 70.2023 612.25 69.2032V64C612.248 63.507 612.344 63.0185 612.532 62.5627C612.719 62.1069 612.995 61.6927 613.344 61.3441C613.693 60.9955 614.107 60.7193 614.563 60.5316C615.019 60.3438 615.507 60.2481 616 60.25C618.103 60.25 619.75 61.8972 619.75 64V69.2032C619.75 71.2966 618.068 73 616 73Z" fill="#1E293B"/>
<path d="M615.532 114.288C614.572 114.288 613.668 114.112 612.82 113.76C611.988 113.408 611.268 112.912 610.66 112.272C610.068 111.632 609.644 110.88 609.388 110.016L611.788 109.104C612.108 109.952 612.596 110.608 613.252 111.072C613.908 111.536 614.668 111.768 615.532 111.768C616.236 111.768 616.844 111.632 617.356 111.36C617.884 111.088 618.292 110.704 618.58 110.208C618.884 109.712 619.036 109.112 619.036 108.408C619.036 107.72 618.884 107.128 618.58 106.632C618.292 106.136 617.884 105.76 617.356 105.504C616.844 105.248 616.236 105.12 615.532 105.12C615.244 105.12 614.948 105.144 614.644 105.192C614.356 105.24 614.1 105.304 613.876 105.384L613.252 104.064L617.956 98.52H610.348V96.12H621.124V98.4L616.516 103.92L616.444 103.008C617.516 103.024 618.46 103.264 619.276 103.728C620.092 104.176 620.724 104.8 621.172 105.6C621.636 106.384 621.868 107.296 621.868 108.336C621.868 109.456 621.596 110.472 621.052 111.384C620.508 112.28 619.756 112.992 618.796 113.52C617.852 114.032 616.764 114.288 615.532 114.288Z" fill="black"/>
<path d="M588.924 143.192C588.167 143.192 587.473 143.053 586.844 142.776C586.215 142.488 585.681 142.099 585.244 141.608C584.807 141.117 584.492 140.568 584.3 139.96L585.66 139.4C585.948 140.168 586.375 140.76 586.94 141.176C587.516 141.581 588.188 141.784 588.956 141.784C589.425 141.784 589.836 141.709 590.188 141.56C590.54 141.411 590.812 141.203 591.004 140.936C591.207 140.659 591.308 140.339 591.308 139.976C591.308 139.475 591.164 139.08 590.876 138.792C590.599 138.493 590.188 138.269 589.644 138.12L587.452 137.448C586.588 137.181 585.927 136.76 585.468 136.184C585.009 135.608 584.78 134.947 584.78 134.2C584.78 133.549 584.935 132.979 585.244 132.488C585.564 131.987 586.001 131.597 586.556 131.32C587.121 131.032 587.761 130.888 588.476 130.888C589.191 130.888 589.836 131.016 590.412 131.272C590.999 131.528 591.495 131.875 591.9 132.312C592.305 132.739 592.604 133.229 592.796 133.784L591.452 134.344C591.196 133.672 590.812 133.165 590.3 132.824C589.788 132.472 589.185 132.296 588.492 132.296C588.065 132.296 587.687 132.371 587.356 132.52C587.036 132.659 586.785 132.867 586.604 133.144C586.433 133.411 586.348 133.731 586.348 134.104C586.348 134.541 586.487 134.931 586.764 135.272C587.041 135.613 587.463 135.875 588.028 136.056L590.028 136.648C590.967 136.936 591.676 137.347 592.156 137.88C592.636 138.413 592.876 139.075 592.876 139.864C592.876 140.515 592.705 141.091 592.364 141.592C592.033 142.093 591.569 142.488 590.972 142.776C590.385 143.053 589.703 143.192 588.924 143.192ZM594.996 146.2V134.376H596.452V136.232L596.26 135.864C596.58 135.352 597.017 134.947 597.572 134.648C598.126 134.339 598.761 134.184 599.476 134.184C600.286 134.184 601.012 134.381 601.652 134.776C602.302 135.171 602.814 135.709 603.188 136.392C603.561 137.064 603.748 137.832 603.748 138.696C603.748 139.539 603.561 140.301 603.188 140.984C602.814 141.667 602.302 142.205 601.652 142.6C601.012 142.995 600.281 143.192 599.46 143.192C598.766 143.192 598.132 143.037 597.556 142.728C596.99 142.419 596.553 141.981 596.244 141.416L596.484 141.16V146.2H594.996ZM599.348 141.752C599.892 141.752 600.377 141.619 600.804 141.352C601.23 141.085 601.561 140.723 601.796 140.264C602.041 139.795 602.164 139.272 602.164 138.696C602.164 138.099 602.041 137.576 601.796 137.128C601.561 136.669 601.23 136.307 600.804 136.04C600.377 135.763 599.892 135.624 599.348 135.624C598.804 135.624 598.313 135.757 597.876 136.024C597.449 136.291 597.108 136.659 596.852 137.128C596.606 137.587 596.484 138.109 596.484 138.696C596.484 139.272 596.606 139.795 596.852 140.264C597.108 140.723 597.449 141.085 597.876 141.352C598.313 141.619 598.804 141.752 599.348 141.752ZM609.667 143.192C608.835 143.192 608.094 142.995 607.443 142.6C606.792 142.205 606.28 141.667 605.907 140.984C605.534 140.291 605.347 139.517 605.347 138.664C605.347 137.8 605.528 137.032 605.891 136.36C606.264 135.688 606.766 135.16 607.395 134.776C608.035 134.381 608.75 134.184 609.539 134.184C610.179 134.184 610.744 134.301 611.235 134.536C611.736 134.76 612.158 135.069 612.499 135.464C612.851 135.848 613.118 136.291 613.299 136.792C613.491 137.283 613.587 137.795 613.587 138.328C613.587 138.445 613.576 138.579 613.555 138.728C613.544 138.867 613.528 139 613.507 139.128H606.435V137.848H612.643L611.939 138.424C612.035 137.869 611.982 137.373 611.779 136.936C611.576 136.499 611.278 136.152 610.883 135.896C610.488 135.64 610.04 135.512 609.539 135.512C609.038 135.512 608.579 135.64 608.163 135.896C607.747 136.152 607.422 136.52 607.187 137C606.963 137.469 606.872 138.029 606.915 138.68C606.872 139.309 606.968 139.864 607.203 140.344C607.448 140.813 607.79 141.181 608.227 141.448C608.675 141.704 609.16 141.832 609.683 141.832C610.259 141.832 610.744 141.699 611.139 141.432C611.534 141.165 611.854 140.824 612.099 140.408L613.347 141.048C613.176 141.443 612.91 141.805 612.547 142.136C612.195 142.456 611.774 142.712 611.283 142.904C610.803 143.096 610.264 143.192 609.667 143.192ZM617.946 143.192C617.38 143.192 616.879 143.091 616.442 142.888C616.015 142.675 615.679 142.387 615.434 142.024C615.188 141.651 615.066 141.224 615.066 140.744C615.066 140.285 615.162 139.875 615.354 139.512C615.556 139.139 615.866 138.824 616.282 138.568C616.708 138.312 617.242 138.131 617.882 138.024L621.082 137.496V138.744L618.218 139.224C617.663 139.32 617.258 139.496 617.002 139.752C616.756 140.008 616.634 140.323 616.634 140.696C616.634 141.048 616.772 141.341 617.05 141.576C617.338 141.811 617.695 141.928 618.122 141.928C618.666 141.928 619.135 141.816 619.53 141.592C619.935 141.357 620.25 141.043 620.474 140.648C620.708 140.253 620.826 139.816 620.826 139.336V137.144C620.826 136.675 620.65 136.296 620.298 136.008C619.956 135.709 619.503 135.56 618.938 135.56C618.447 135.56 618.01 135.688 617.626 135.944C617.252 136.189 616.975 136.52 616.794 136.936L615.498 136.264C615.658 135.869 615.914 135.517 616.266 135.208C616.618 134.888 617.028 134.637 617.498 134.456C617.967 134.275 618.458 134.184 618.97 134.184C619.631 134.184 620.212 134.312 620.714 134.568C621.215 134.813 621.604 135.16 621.882 135.608C622.17 136.045 622.314 136.557 622.314 137.144V143H620.858V141.368L621.13 141.464C620.948 141.805 620.703 142.104 620.394 142.36C620.084 142.616 619.722 142.819 619.306 142.968C618.89 143.117 618.436 143.192 617.946 143.192ZM624.621 143V130.888H626.109V139.192L625.501 139.048L630.077 134.376H631.981L628.669 137.848L632.205 143H630.445L627.213 138.328L628.141 138.28L625.629 140.904L626.109 139.816V143H624.621ZM637.354 143.192C636.522 143.192 635.781 142.995 635.13 142.6C634.48 142.205 633.968 141.667 633.594 140.984C633.221 140.291 633.034 139.517 633.034 138.664C633.034 137.8 633.216 137.032 633.578 136.36C633.952 135.688 634.453 135.16 635.082 134.776C635.722 134.381 636.437 134.184 637.226 134.184C637.866 134.184 638.432 134.301 638.922 134.536C639.424 134.76 639.845 135.069 640.186 135.464C640.538 135.848 640.805 136.291 640.986 136.792C641.178 137.283 641.274 137.795 641.274 138.328C641.274 138.445 641.264 138.579 641.242 138.728C641.232 138.867 641.216 139 641.194 139.128H634.122V137.848H640.33L639.626 138.424C639.722 137.869 639.669 137.373 639.466 136.936C639.264 136.499 638.965 136.152 638.57 135.896C638.176 135.64 637.728 135.512 637.226 135.512C636.725 135.512 636.266 135.64 635.85 135.896C635.434 136.152 635.109 136.52 634.874 137C634.65 137.469 634.56 138.029 634.602 138.68C634.56 139.309 634.656 139.864 634.89 140.344C635.136 140.813 635.477 141.181 635.914 141.448C636.362 141.704 636.848 141.832 637.37 141.832C637.946 141.832 638.432 141.699 638.826 141.432C639.221 141.165 639.541 140.824 639.786 140.408L641.034 141.048C640.864 141.443 640.597 141.805 640.234 142.136C639.882 142.456 639.461 142.712 638.97 142.904C638.49 143.096 637.952 143.192 637.354 143.192ZM643.215 143V134.376H644.671V135.96L644.511 135.736C644.713 135.245 645.023 134.883 645.439 134.648C645.855 134.403 646.361 134.28 646.959 134.28H647.487V135.688H646.735C646.127 135.688 645.636 135.88 645.263 136.264C644.889 136.637 644.703 137.171 644.703 137.864V143H643.215Z" fill="#464A0F"/>
<g clip-path="url(#clip1_80_290)">
<path d="M792.5 82.0001C792.5 82.0001 791 82.0001 791 80.5001C791 79.0001 792.5 74.5001 798.5 74.5001C804.5 74.5001 806 79.0001 806 80.5001C806 82.0001 804.5 82.0001 804.5 82.0001H792.5ZM798.5 73.0751C799.495 73.0751 800.448 72.68 801.152 71.9767C801.855 71.2735 802.25 70.3196 802.25 69.3251C802.25 68.3305 801.855 67.3767 801.152 66.6734C800.448 65.9702 799.495 65.5751 798.5 65.5751C797.505 65.5751 796.552 65.9702 795.848 66.6734C795.145 67.3767 794.75 68.3305 794.75 69.3251C794.75 70.3196 795.145 71.2735 795.848 71.9767C796.552 72.68 797.505 73.0751 798.5 73.0751Z" fill="#1C1C1C"/>
<path d="M789.5 59.5C788.704 59.5 787.941 59.8161 787.379 60.3787C786.816 60.9413 786.5 61.7044 786.5 62.5V76.75C786.5 77.3467 786.737 77.919 787.159 78.341C787.581 78.7629 788.153 79 788.75 79H789.73C790.044 77.8981 790.589 76.8756 791.329 76H788V62.5C788 62.1022 788.158 61.7206 788.439 61.4393C788.721 61.158 789.102 61 789.5 61H807.5C807.898 61 808.279 61.158 808.561 61.4393C808.842 61.7206 809 62.1022 809 62.5V76H805.672C806.503 76.981 807.007 78.0595 807.271 79H808.25C808.847 79 809.419 78.7629 809.841 78.341C810.263 77.919 810.5 77.3467 810.5 76.75V62.5C810.5 61.7044 810.184 60.9413 809.621 60.3787C809.059 59.8161 808.296 59.5 807.5 59.5H789.5Z" fill="#1C1C1C"/>
</g>
<path d="M790.224 114V98.52H786.792V96.12H793.032V114H790.224ZM802.574 114.288C801.63 114.288 800.742 114.12 799.91 113.784C799.078 113.432 798.358 112.944 797.75 112.32C797.142 111.696 796.71 110.944 796.454 110.064L798.83 109.152C799.134 110 799.63 110.648 800.318 111.096C801.006 111.544 801.758 111.768 802.574 111.768C803.246 111.768 803.838 111.616 804.35 111.312C804.862 111.008 805.262 110.592 805.55 110.064C805.854 109.536 806.006 108.936 806.006 108.264C806.006 107.576 805.854 106.976 805.55 106.464C805.262 105.936 804.862 105.528 804.35 105.24C803.838 104.936 803.246 104.784 802.574 104.784C801.902 104.784 801.286 104.936 800.726 105.24C800.166 105.544 799.758 105.952 799.502 106.464L797.222 105.96L798.614 96.12H808.142V98.52H799.718L800.798 97.344L799.766 104.88L798.878 104.28C799.358 103.608 799.942 103.12 800.63 102.816C801.318 102.512 802.102 102.36 802.982 102.36C804.15 102.36 805.166 102.624 806.03 103.152C806.91 103.664 807.59 104.368 808.07 105.264C808.566 106.144 808.814 107.144 808.814 108.264C808.814 109.4 808.542 110.424 807.998 111.336C807.454 112.248 806.71 112.968 805.766 113.496C804.838 114.024 803.774 114.288 802.574 114.288Z" fill="black"/>
<path d="M761.828 143V131.08H769.588V132.52H763.396V136.296H769.268V137.736H763.396V141.56H769.588V143H761.828ZM770.379 143L773.403 138.68L770.395 134.376H772.187L774.763 138.12H773.851L776.395 134.376H778.203L775.195 138.68L778.187 143H776.395L773.851 139.256H774.747L772.203 143H770.379ZM779.527 143V130.888H781.015V136.056L780.743 135.912C780.956 135.368 781.298 134.947 781.767 134.648C782.247 134.339 782.807 134.184 783.447 134.184C784.066 134.184 784.615 134.323 785.095 134.6C785.586 134.877 785.97 135.261 786.247 135.752C786.535 136.243 786.679 136.797 786.679 137.416V143H785.175V137.896C785.175 137.416 785.084 137.011 784.903 136.68C784.732 136.349 784.492 136.093 784.183 135.912C783.874 135.72 783.516 135.624 783.111 135.624C782.716 135.624 782.359 135.72 782.039 135.912C781.719 136.093 781.468 136.355 781.287 136.696C781.106 137.027 781.015 137.427 781.015 137.896V143H779.527ZM788.808 143V134.376H790.296V143H788.808ZM788.808 133V131.08H790.296V133H788.808ZM797.069 143.192C796.376 143.192 795.741 143.037 795.165 142.728C794.6 142.419 794.162 141.981 793.853 141.416L794.061 141.16V143H792.605V130.888H794.093V136.232L793.869 135.864C794.189 135.352 794.626 134.947 795.181 134.648C795.736 134.339 796.37 134.184 797.085 134.184C797.896 134.184 798.621 134.381 799.261 134.776C799.912 135.171 800.424 135.709 800.797 136.392C801.17 137.064 801.357 137.832 801.357 138.696C801.357 139.539 801.17 140.301 800.797 140.984C800.424 141.667 799.912 142.205 799.261 142.6C798.621 142.995 797.89 143.192 797.069 143.192ZM796.957 141.752C797.501 141.752 797.986 141.619 798.413 141.352C798.84 141.085 799.17 140.723 799.405 140.264C799.65 139.795 799.773 139.272 799.773 138.696C799.773 138.099 799.65 137.576 799.405 137.128C799.17 136.669 798.84 136.307 798.413 136.04C797.986 135.763 797.501 135.624 796.957 135.624C796.413 135.624 795.922 135.757 795.485 136.024C795.058 136.291 794.717 136.659 794.461 137.128C794.216 137.587 794.093 138.109 794.093 138.696C794.093 139.272 794.216 139.795 794.461 140.264C794.717 140.723 795.058 141.085 795.485 141.352C795.922 141.619 796.413 141.752 796.957 141.752ZM803.308 143V134.376H804.796V143H803.308ZM803.308 133V131.08H804.796V133H803.308ZM810.609 143.096C809.766 143.096 809.116 142.856 808.657 142.376C808.209 141.896 807.985 141.219 807.985 140.344V135.8H806.417V134.376H806.737C807.121 134.376 807.425 134.259 807.649 134.024C807.873 133.789 807.985 133.48 807.985 133.096V132.392H809.473V134.376H811.409V135.8H809.473V140.296C809.473 140.584 809.516 140.835 809.601 141.048C809.697 141.261 809.852 141.432 810.065 141.56C810.278 141.677 810.561 141.736 810.913 141.736C810.988 141.736 811.078 141.731 811.185 141.72C811.302 141.709 811.409 141.699 811.505 141.688V143C811.366 143.032 811.212 143.053 811.041 143.064C810.87 143.085 810.726 143.096 810.609 143.096ZM817.311 143.192C816.479 143.192 815.727 143 815.055 142.616C814.383 142.221 813.849 141.683 813.455 141C813.06 140.317 812.863 139.544 812.863 138.68C812.863 137.816 813.055 137.048 813.439 136.376C813.833 135.704 814.367 135.171 815.039 134.776C815.711 134.381 816.468 134.184 817.311 134.184C818.143 134.184 818.895 134.381 819.567 134.776C820.239 135.16 820.767 135.688 821.151 136.36C821.545 137.032 821.743 137.805 821.743 138.68C821.743 139.555 821.54 140.333 821.135 141.016C820.729 141.688 820.191 142.221 819.519 142.616C818.857 143 818.121 143.192 817.311 143.192ZM817.311 141.752C817.844 141.752 818.324 141.619 818.751 141.352C819.188 141.085 819.529 140.717 819.775 140.248C820.031 139.779 820.159 139.256 820.159 138.68C820.159 138.093 820.031 137.576 819.775 137.128C819.529 136.669 819.188 136.307 818.751 136.04C818.324 135.763 817.844 135.624 817.311 135.624C816.767 135.624 816.276 135.763 815.839 136.04C815.412 136.307 815.071 136.669 814.815 137.128C814.559 137.576 814.431 138.093 814.431 138.68C814.431 139.256 814.559 139.779 814.815 140.248C815.071 140.717 815.412 141.085 815.839 141.352C816.276 141.619 816.767 141.752 817.311 141.752ZM823.683 143V134.376H825.139V135.96L824.979 135.736C825.182 135.245 825.491 134.883 825.907 134.648C826.323 134.403 826.83 134.28 827.427 134.28H827.955V135.688H827.203C826.595 135.688 826.105 135.88 825.731 136.264C825.358 136.637 825.171 137.171 825.171 137.864V143H823.683ZM832.365 143.192C831.501 143.192 830.749 142.979 830.109 142.552C829.469 142.125 829.016 141.549 828.749 140.824L829.933 140.248C830.178 140.76 830.514 141.165 830.941 141.464C831.368 141.763 831.842 141.912 832.365 141.912C832.834 141.912 833.224 141.8 833.533 141.576C833.842 141.352 833.997 141.059 833.997 140.696C833.997 140.44 833.922 140.237 833.773 140.088C833.634 139.928 833.464 139.805 833.261 139.72C833.058 139.624 832.872 139.555 832.701 139.512L831.405 139.144C830.626 138.92 830.056 138.6 829.693 138.184C829.341 137.768 829.165 137.283 829.165 136.728C829.165 136.216 829.293 135.773 829.549 135.4C829.816 135.016 830.173 134.717 830.621 134.504C831.08 134.291 831.592 134.184 832.157 134.184C832.914 134.184 833.592 134.376 834.189 134.76C834.797 135.144 835.229 135.683 835.485 136.376L834.269 136.936C834.077 136.488 833.789 136.136 833.405 135.88C833.021 135.613 832.589 135.48 832.109 135.48C831.672 135.48 831.325 135.592 831.069 135.816C830.813 136.029 830.685 136.301 830.685 136.632C830.685 136.877 830.749 137.08 830.877 137.24C831.005 137.389 831.16 137.507 831.341 137.592C831.522 137.667 831.698 137.731 831.869 137.784L833.277 138.2C833.981 138.403 834.525 138.717 834.909 139.144C835.304 139.571 835.501 140.083 835.501 140.68C835.501 141.16 835.368 141.592 835.101 141.976C834.834 142.36 834.466 142.659 833.997 142.872C833.528 143.085 832.984 143.192 832.365 143.192Z" fill="#464A0F"/>
<defs>
<clipPath id="clip0_80_290">
<rect width="24" height="24" fill="white" transform="translate(413.5 58)"/>
</clipPath>
<clipPath id="clip1_80_290">
<rect width="24" height="24" fill="white" transform="translate(786.5 58)"/>
</clipPath>
</defs>
</svg>
